<svg xmlns="http://www.w3.org/2000/svg" xml:space="preserve" x="0px" y="0px" viewBox="0 0 500 70.617"><path fill="#FFF" d="M196.427.146c1.29-.283 2.636-.06 3.885.322 2.317.655 4.568 1.517 6.84 2.308.566.22 1.312.562 1.29 1.279-.061.839-.62 1.564-.65 2.414-.112 6.014-.154 12.032-.182 18.049-.009 8.069-.184 16.134-.182 24.203.039 2.133-.212 4.257-.603 6.349-.179.748-.354 1.497-.558 2.237-.127.374-.242.752-.357 1.128-.069.184-.134.369-.194.553-.875 2.312-2.001 4.557-3.579 6.47-.694.795-1.441 1.567-2.362 2.096-.571.272-1.344.315-1.729-.279-.369-.715.19-1.396.618-1.925 1.262-1.53 2.129-3.363 2.574-5.292.169-.611.298-1.232.369-1.861a25.54 25.54 0 0 0 .339-4.262c.015-15.512 0-31.026.007-46.539.084-1.078-.702-1.94-1.405-2.654a10.485 10.485 0 0 0-3.309-2.234c-.527-.251-1.106-.512-1.43-1.022-.284-.536.043-1.198.618-1.34zM259.484.137c1.824-.391 3.641.238 5.364.778 1.804.586 3.587 1.232 5.376 1.871.49.156.923.441 1.251.845.158 1.104-.685 2.021-.657 3.121-.106 5.307-.071 10.615-.123 15.924-.089 8.925-.166 17.85-.182 26.777-.104 1.815-.225 3.63-.59 5.415-.823 3.913-2.349 7.771-4.949 10.852-.892.927-1.891 2.098-3.296 2.051-.4-.264-.832-.67-.709-1.201.177-.575.607-1.014.959-1.485 1.407-1.759 2.226-3.931 2.597-6.139.372-1.768.46-3.583.488-5.387.017-4.223-.007-8.447.011-12.67-4.938 1.242-9.88 2.498-14.818 3.745-3.6.843-7.185 1.755-10.783 2.61-4.218.919-8.428 1.884-12.683 2.621-1.165.166-2.342.387-3.518.298-1.694-.329-3.278-1.061-4.832-1.783-1.376-.692-2.783-1.396-3.899-2.476-.532-.503-.972-1.277-.607-2.001 1.016-.718 2.252-.136 3.354.004 4.672.897 9.456.452 14.127-.199 3.881-.475 7.73-1.154 11.589-1.783 7.362-1.23 14.731-2.423 22.072-3.78-.02-10.243.002-20.488-.004-30.731.03-.968-.568-1.805-1.214-2.466a10.705 10.705 0 0 0-3.579-2.468c-.661-.27-1.294-.704-1.549-1.398.122-.413.359-.822.804-.945zM405.652.042c1.05-.041 2.105-.095 3.151.073.22.147.484.14.745.188 1.478.512 2.995.947 4.467 1.495.905.333 1.819.651 2.729.983.441.16.88.391 1.167.782.348.88-.365 1.673-.493 2.518-.121 1.059-.115 2.129-.132 3.194-.106 5.703-.117 11.408-.257 17.111 1.962-.127 3.805-.895 5.686-1.407 1.344-.339 2.723-.584 4.114-.603 1.34.022 2.835.821 3.142 2.217.19.946-.508 1.785-1.266 2.247-1.474.851-3.261.419-4.871.674a1.127 1.127 0 0 1-.519.149c-2.096-.229-4.208 0-6.308.073-.052 1.982.073 3.974-.141 5.951-.296 3.695-1.29 7.354-3.025 10.637-.947 1.768-2.098 3.475-3.646 4.774-.56.402-1.228.89-1.953.724-.553-.076-.892-.737-.698-1.242.264-.726.88-1.24 1.29-1.882 1.98-2.794 2.507-6.306 2.677-9.649.039-2.946.013-5.893.015-8.839a184.232 184.232 0 0 1-11.168 4.151c-3.611 1.182-7.233 2.349-10.933 3.216-2.338.553-4.698 1.005-7.053 1.476-2.6.463-5.204.914-7.816 1.307-.947.035-1.906.38-2.831.037-.886-.225-1.383-1.068-1.688-1.861-.158-.62-.229-1.256-.38-1.874-.149-6.235-.015-12.475-.071-18.708-.16-1.336-1.4-2.174-2.518-2.706-.875-.421-2.001-.46-2.632-1.279-.395-.534-.05-1.227.45-1.547 1.081-.7 2.438-.756 3.684-.605 1.822.261 3.585.867 5.431.977 2.036.285 4.08-.08 6.12-.071.88-.03 1.765-.056 2.639-.179 1.256.058 2.498-.136 3.747-.236l.011-.149c.246 0 .499-.004.758-.011l-.032-.179.631.017-.095-.186c.408.061.784-.188 1.195-.194l-.073-.186c.408.082.774-.188 1.18-.201l-.058-.156c.462.017.879-.236 1.346-.236a13.2 13.2 0 0 1-.022-.169c.248.002.501.002.759-.002l-.028-.169c.393.007.817.02 1.182-.171.784-.02 1.569-.022 2.358-.006.244.173.527.186.83.192l-.063.244c.102-.03.307-.091.409-.123l-.069.216c.512.132.791.638 1.106 1.026.266.566.251 1.193.218 1.802l-.223-.02.073.359-.164.007c-.287.536-.875.785-1.381 1.061-.804.242-1.647.218-2.474.287-1.642.255-3.319.004-4.955.298-.895.015-1.791.011-2.682.087-1.204.197-2.435.052-3.641.233-1.173.169-2.39-.013-3.546.246-.986.002-1.969.06-2.954.061l.019.192-.208-.087c-.009 4.877.002 9.759-.119 14.634.002 1.204-.095 2.425.181 3.611 2.258.071 4.51-.24 6.751-.503 1.1-.192 2.226-.246 3.317-.497.436-.037.882-.063 1.314-.175.365-.048.752-.052 1.106-.195 1.117-.132 2.252-.294 3.337-.577.374-.017.761-.047 1.128-.158.315-.052.644-.099.959-.19a118.723 118.723 0 0 0 17.63-4.566c.015-6.792.004-13.582.002-20.372.041-1.305-1.009-2.26-1.88-3.08-1.026-.916-2.265-1.537-3.522-2.062-.264-.168-.428-.542-.763-.534a3.261 3.261 0 0 1-.017-1.32l.227.063-.086-.272.311.101-.138-.257zM457.888 1.602c1.303-.281 2.597.149 3.855.452a85.557 85.557 0 0 1 6.425 1.979c1.016.43 2.215.944 2.582 2.087.244.862-.341 1.655-.914 2.232-.959.953-1.958 1.861-2.919 2.811 2.433 1.154 4.864 2.323 7.375 3.302 1.938.746 3.913 1.444 5.975 1.755.795.127 1.604.043 2.41.099 1.824.517 3.484 1.482 5.04 2.548 1.011.72 2.02 1.469 2.84 2.409.659.761.962 1.859.64 2.831-.298.804-1.169 1.292-2.003 1.262-1.048.063-1.969-.49-2.876-.925-7.402-3.592-14.842-7.116-22.221-10.76-3.388 2.792-6.976 5.351-10.805 7.51-5.59 3.211-11.749 5.234-17.899 7.069-.605.11-1.221.147-1.822.03-.207-.236-.547-.43-.501-.789-.056-.756.769-1.091 1.353-1.323 5.563-2.191 10.909-4.968 15.842-8.352 4.086-2.915 7.966-6.191 11.168-10.075.393-.365.503-.981.194-1.435-.733-1.044-1.869-1.72-3.017-2.222-.575-.272-1.299-.512-1.524-1.171-.136-.342.052-.679.214-.973.192-.117.391-.232.588-.351zM341.54 4.971c1.964-.588 4.007-.069 5.969.244.551.076 1.078.488 1.107 1.076-.02.919-.592 1.692-.94 2.509-.387.767-.566 1.608-.739 2.44-.908 3.911-1.925 7.793-2.866 11.697.525.095 1.107.168 1.5.575.672.592.754 1.712.199 2.409-.465.592-1.228.864-1.96.893-8.421-.007-16.815.75-25.215 1.163-.08.292-.166.581-.249.869-.45 1.031-.936 2.1-1.845 2.809-.268.104-.521.22-.761.365-.486.028-1.031.022-1.383-.367-.637-.726-.732-1.737-.867-2.651-.547-5.431-1.078-10.861-1.668-16.287-.123-1.042-.168-2.157-.808-3.04-.547-.838-1.379-1.441-2.284-1.845-.676-.324-1.461-1.1-1-1.897.575-.8 1.716-.823 2.604-.692 2.25.248 4.385 1.29 6.68 1.143 1.737.002 3.466-.177 5.204-.149 2.922-.035 5.833-.22 8.756-.244 1.121.026 2.23-.169 3.352-.123 1.772.011 3.533-.166 5.299-.246l-.017-.14c.478.039.918-.192 1.374-.315.184-.057.37-.122.558-.196m-5.364 4.232c-2.155.188-4.326.08-6.479.294-1.701.041-3.406.035-5.1.201-2.258-.065-4.504.201-6.757.181.208 1.701.115 3.421.324 5.124.084 3.094.344 6.176.432 9.269 6.969-.342 13.938-.657 20.908-1.024.292-2.477.48-4.968.737-7.451.166-2.265.475-4.521.568-6.79-1.538.176-3.092.092-4.633.196zM182.896 5.985c1.361-.499 2.822-.047 4.162.315 2.221.635 4.38 1.463 6.559 2.221.603.216 1.405.536 1.422 1.294-.052.845-.612 1.567-.651 2.416A655.533 655.533 0 0 0 194.189 29c-.149 4.769-.141 9.543-.179 14.314-.235 5.031-1.608 10.114-4.508 14.282-.86 1.18-1.82 2.353-3.11 3.079-.387.246-.854.208-1.288.197-.724-.445-.7-1.415-.127-1.973 1.75-2.014 2.786-4.557 3.192-7.177.212-.862.011-1.759.305-2.602.158-2.671.041-5.353.078-8.028.002-3.216-.004-6.435.004-9.651-1.094.268-2.208.456-3.304.715-1.487.292-2.987.761-4.519.566-.879-.147-1.677-.564-2.487-.912-.289 2.991-.646 5.973-.97 8.96.81.073 1.783.374 2.046 1.245.296.583.099 1.26-.255 1.768-.624.739-1.657.931-2.576.884-4.545-.078-9.08.246-13.614.439-.618.037-1.23.145-1.846.149-1.362-.019-2.712.203-4.074.179-.419 1.295-.925 2.66-2.005 3.555-.664.553-1.82.752-2.377-.056-.689-1.048-.651-2.364-.83-3.559-.303-4.101-.594-8.199-.89-12.298-.292-3.414-.462-6.839-.862-10.245-.21-1.273-1.163-2.245-2.161-2.98v.08c-.767-.411-1.644-.819-1.945-1.709.121-1.191 1.504-1.433 2.477-1.309 1.954.207 3.81.918 5.753 1.184 1.174.082 2.355-.015 3.529-.058 4.549-.175 9.098-.329 13.64-.633 1.344-.13 2.548-.89 3.903-.96 1.591-.087 3.168.233 4.724.523.748.117 1.091.953.852 1.625-.443 1.309-1.361 2.468-1.454 3.885-.179 1.913-.506 3.818-.584 5.74 2.371.106 4.752.238 7.123.02a46.512 46.512 0 0 0 2.688-.123c.032-5.042.007-10.088.013-15.133.03-.553-.268-1.044-.553-1.491a10.397 10.397 0 0 0-3.296-2.788c-.8-.411-1.694-.7-2.312-1.389-.165-.507-.062-1.14.506-1.33m-26.724 15.594c.082 2.786.235 5.569.307 8.356.162 2.163.106 4.335.294 6.496-.02 1.789.149 3.574.182 5.361 3.345-.147 6.686-.363 10.033-.432 1.936-.164 3.885-.099 5.819-.307.063-2.85.123-5.701.112-8.553.145-3.927.171-7.86.186-11.792-5.64.352-11.293.518-16.933.871z"/><path fill="#FFF" d="M225.174 12.161c2.712-2.187 6.155-3.226 9.556-3.695 1.876-.048 3.78-.058 5.608.432 3.436.879 6.839 2.608 8.951 5.545 2.075 2.876 2.505 6.695 1.647 10.083-.769 2.924-2.827 5.411-5.448 6.881-3.015 1.731-6.565 2.362-10.008 2.26-3.771-.322-7.544-1.617-10.435-4.115-2.018-1.692-3.455-4.093-3.885-6.701-.255-1.83-.168-3.73.402-5.497.637-2.047 1.931-3.869 3.612-5.193m10.987.425c-3.319.24-6.729 2.036-8.207 5.119-1.132 2.416-.866 5.426.657 7.615 2.939 4.387 9.822 5.644 13.915 2.154 3.282-2.613 3.734-7.81 1.284-11.131-1.765-2.348-4.708-3.819-7.649-3.757zM32.351 10.374c.015-.624.611-1.031 1.169-1.154.979-.13 1.956.091 2.911.287 2.306.525 4.562 1.266 6.766 2.124.849.342 1.752.713 2.334 1.454.497.583.454 1.463.086 2.1-2.088 3.19-4.597 6.085-7.283 8.785 3.17 1.588 6.343 3.183 9.627 4.527 2.113.849 4.266 1.649 6.518 2.046 1.126.233 2.315-.082 3.406.359 2.176.772 4.11 2.094 5.912 3.512 1.001.832 2.109 1.887 2.025 3.306.054 1.074-.925 1.997-1.977 1.993-1.247.11-2.323-.611-3.403-1.113-6.49-3.134-13.121-5.98-19.494-9.355a292.1 292.1 0 0 1-4.663-2.468c-.201-.132-.436-.169-.668-.199-3.784 3.574-7.909 6.814-12.417 9.428-4.05 2.369-8.309 4.367-12.661 6.118-1.034.386-2.097.956-3.239.732-.651-.039-1.184-.823-.782-1.407.493-.659 1.413-.696 2.077-1.111 6.055-3.118 11.687-7.021 16.929-11.356 3.501-2.937 6.729-6.217 9.487-9.867.795-1.081 1.577-2.178 2.235-3.349.313-.523-.006-1.134-.289-1.591-.772-1.068-1.975-1.705-3.183-2.161-.673-.288-1.507-.795-1.423-1.64zM122.864 10.868c.549-.369 1.232-.383 1.869-.417a14.96 14.96 0 0 1 4.631.683c.599.223 1.325.579 1.416 1.292.117.737-.469 1.288-.946 1.753-3.181 2.831-6.221 5.828-9.552 8.484a52.982 52.982 0 0 1-4.655 3.6c3.244 1.539 6.576 2.932 10.055 3.844 1.277.309 2.58.607 3.903.536 1.132-.076 2.202.396 3.201.875a24.716 24.716 0 0 1 5.093 3.455c.743.657 1.323 1.562 1.405 2.57.054 1.003-.689 2.003-1.705 2.135-.869.149-1.746-.097-2.513-.497-7.427-3.652-15.094-6.825-22.336-10.84-2.742 1.709-5.487 3.421-8.376 4.875-3.544 1.859-7.263 3.35-10.976 4.832-3.706 1.47-7.414 2.937-11.159 4.309-.823.287-1.833.463-2.591-.076-.558-.329-.54-1.249.013-1.573.705-.432 1.495-.691 2.26-.998 7.449-3.174 14.641-6.948 21.526-11.209 5.733-3.583 10.911-7.989 15.73-12.717.287-.283.571-.57.828-.88-6.241.378-12.48.806-18.714 1.333-1.995.168-3.929.83-5.941.817-2.526-.056-4.836-1.234-6.982-2.459-.825-.53-1.761-1.405-1.444-2.496.724-.862 1.915-.359 2.835-.192 2.522.389 5.078.465 7.626.545 5.53.229 11.064-.078 16.579-.447 2.552-.218 5.106-.396 7.644-.75.44-.064.907-.112 1.276-.387zM457.894 23.806c.618-.769 1.67-1.027 2.615-1.065 1.828.045 3.624.434 5.42.741.934.186 1.966.268 2.731.899.473.49.521 1.215.367 1.846-.346 1.584-.249 3.209-.382 4.815a55.718 55.718 0 0 0-.093 2.52c3.615-.255 7.237-.434 10.844-.802 2.477-.24 4.964-.499 7.397-1.048.819-.145 1.536-.694 2.396-.631 2.308.058 4.584.512 6.85.931 1.349.229 2.704.899 3.451 2.088.426.67.696 1.549.359 2.314-.313.83-1.266 1.199-2.094 1.124-4.813-.592-9.66-.955-14.513-.893-7.22-.071-14.431.359-21.625.879-5.509.37-11.019.767-16.517 1.282-2.237.221-4.458.698-6.714.644-1.253-.026-2.463-.4-3.594-.914-.398-.132-.785-.43-1.217-.32l.063-.251c-.101.024-.302.073-.404.095v-.259a13.47 13.47 0 0 0-.288.019c-.127-.089-.248-.177-.365-.261a55.689 55.689 0 0 1-3.644-1.88c-.707-.426-1.418-1.292-.996-2.148.568-.745 1.619-.558 2.433-.471 3.25.609 6.55.884 9.848 1.08 3.6.095 7.207.29 10.809.032 2.857.06 5.709-.175 8.566-.212a42.02 42.02 0 0 0 2.855-.164c-.106-2.034-.097-4.069-.119-6.105.099-.73-.722-1.011-1.229-1.303-1.033-.571-2.269-.704-3.222-1.416-.193-.364-.288-.831.012-1.166zM352.792 32.344c1.085-.588 2.355-.253 3.523-.212.348.158.735.143 1.117.175.266.201.62.138.938.184.21.179.497.136.759.192.849.233 1.724.372 2.582.575a7.336 7.336 0 0 1 1.688.903c.966.765 1.603 2.023 1.318 3.27-.283.609-.826 1.132-1.526 1.171-1.336.121-2.649-.279-3.981-.268-.83-.242-1.707-.095-2.544-.272-2.239-.119-4.475-.326-6.719-.275-2.479-.182-4.964.004-7.445-.006-2.353.052-4.698.195-7.051.235.043 2.844-.125 5.707-.756 8.488a4.12 4.12 0 0 0-.173.752c-.143.432-.272.867-.378 1.309-.138.367-.262.735-.374 1.109-.274.758-.601 1.493-.914 2.234-.186.376-.406.739-.532 1.141a1.924 1.924 0 0 0-.188.267c-.058.099-.092.177-.104.203a16.91 16.91 0 0 1-.492.963 33.177 33.177 0 0 1-.825 1.198 6.158 6.158 0 0 1-.609.792l-.141.173-.169.195-.925.962-.16.16a3.076 3.076 0 0 1-.765.461l-.195.075a2.489 2.489 0 0 1-1.394-.162l-.345-.267a1.158 1.158 0 0 1-.21-.55c-.024-.23.029-.405.054-.487.13-.414.436-.651.565-.739a2.804 2.804 0 0 0 .61-.714c1.055-1.268 1.672-2.835 2.111-4.408.838-3.034.832-6.208.821-9.329-.015-1.193.041-2.388-.024-3.579-6.423.246-12.86.611-19.218 1.55-.94.084-1.88.19-2.805.361-2.338.225-4.767.75-7.058-.045-2.064-.767-4.059-1.714-6.005-2.745-.739-.415-1.612-.746-2.051-1.521-.344-.488-.288-1.279.274-1.58.676-.354 1.463-.227 2.183-.106 4.292.758 8.651 1.074 13.007 1.117 1.55-.065 3.103.169 4.653.002 2.474-.037 4.951-.002 7.421-.158a440.71 440.71 0 0 0 17.722-.812c3.959-.329 7.942-.547 11.857-1.251.98-.104 1.963-.331 2.873-.731zM475.768 43.134c1.137-.625 2.483-.477 3.736-.486 1.134.086 2.423-.073 3.38.676.54.441.499 1.232.303 1.837-.361 1.048-.97 2.044-.994 3.181-.061 2.723.093 5.467-.376 8.166-.488 3.226-1.511 6.386-3.129 9.228-.979 1.686-2.146 3.335-3.751 4.478-.527.411-1.217.473-1.846.339-.382-.404-.557-.998-.266-1.504.475-.88 1.089-1.686 1.478-2.617 1.182-2.693 1.55-5.668 1.636-8.583.015-3.691.004-7.384 0-11.075-2.963.168-5.936.06-8.897.292-2.69.035-5.366.316-8.037.609-1.817.235-3.645.46-5.39 1.033-1.843.603-3.819.22-5.588-.434-1.588-.581-3.172-1.23-4.566-2.196-.488-.383-1.018-.806-1.202-1.418-.104-.49.298-.985.784-1.054.905-.298 1.837.067 2.749.171 3.834.475 7.708.45 11.57.452 5.452-.037 10.915-.13 16.339-.722.69-.09 1.403-.137 2.067-.373z"/><path fill="#FFF" d="M307.089 47.368c1.266-.802 2.805-.201 4.186-.143 2.006.436 4.132.514 6.018 1.398.73.318 1.217 1 1.418 1.757.028 4.104-.004 8.212.034 12.318-.019.303.127.573.242.847 0 0 .225.185.236.235l.294.101c2.014.134 4.034.034 6.051.043 1.796-.06 9 .032 10.805-.022.784-.011 4.56-.733 4.798-.856 2.085-.558 4.203-1.268 6.39-1.134.834.262 1.722.538 2.302 1.24.854.821.802 2.291-.032 3.108-.735.635-1.668 1.169-2.667 1.117-4.339.006-19.981.058-22.518.21-2.476-.102-4.985.195-7.432-.259-.977-.249-2.118-.499-2.749-1.348-1.102-.499-1.426-1.83-1.75-2.891-.443-3.345-.199-6.729-.246-10.09-.002-.32-.119-.618-.205-.918-.72-1.152-2.161-1.42-3.285-2.021-.737-.43-1.534-.852-2.016-1.582-.231-.362-.073-.779.126-1.11zM379.346 47.206c.851-.415 1.807-.162 2.714-.218l.026.117c1.169.041 2.306.35 3.466.49 1.439.328 3 .441 4.257 1.294.676.447.981 1.286.977 2.074-.024 3.916-.039 7.836-.028 11.752-.047.678.583 1.242 1.242 1.234 2.053.03 4.11-.011 6.167.013 1.98.132 3.963-.093 5.947.045 2.351-.071 4.732.084 7.053-.4 1.926-.361 3.751-1.126 5.688-1.446 1.013-.14 2.064-.415 3.079-.115 1.277.283 2.585 1.266 2.641 2.671-.108 1.439-1.491 2.345-2.783 2.628-1.437.071-2.879.013-4.316.019-6.328.015-12.655.058-18.982.136-1.05.186-2.109.019-3.164.056-2.061.013-4.251.037-6.111-.979-1.139-.605-1.949-1.709-2.28-2.945-.62-2.945-.326-5.966-.396-8.951-.06-.856.151-1.779-.218-2.584-.264-.514-.758-.86-1.264-1.106a44.954 44.954 0 0 0-1.664-.754c-.095-.047-.283-.14-.378-.184a17.225 17.225 0 0 0-.953-.53c-.458-.437-1.204-.825-1.154-1.547-.043-.329.272-.526.434-.77zM60.712 51.897c.847-.257 1.744-.119 2.608-.034 1.74.251 3.453.659 5.176 1.003 1.433.287 2.853 1.139 3.456 2.52.376.817.337 1.958-.432 2.541-.577.456-1.362.423-2.053.35a124.056 124.056 0 0 0-20.832-.83c-4.986.168-9.96.57-14.939.869-6.606.506-13.234.81-19.803 1.707-1.887.233-3.862.43-5.694-.222-2.157-.808-4.236-1.807-6.265-2.896-.763-.367-1.562-.866-1.869-1.699-.214-.49.119-1.04.564-1.256.635-.264 1.335-.169 1.993-.065 4.67.819 9.416 1.143 14.155 1.163 1.366.06 2.734.071 4.099-.011 4.785.015 9.562-.266 14.34-.411 4.905-.248 9.809-.482 14.703-.908 2.932-.266 5.88-.503 8.765-1.119.709-.134 1.373-.414 2.028-.702zM133.604 51.992c.482-.231 1.031-.259 1.558-.24 1.608.063 3.175.445 4.746.758 1.26.287 2.617.402 3.702 1.173 1.001.651 1.817 1.798 1.692 3.041-.05.832-.778 1.506-1.593 1.578-.934.082-1.859-.141-2.785-.223-6.358-.689-12.771-.923-19.161-.62-4.229.119-8.445.467-12.67.664-7.395.514-14.818.819-22.155 1.932-1.286.106-2.582.3-3.87.123-1.616-.13-3.058-.931-4.53-1.537-.752-.283-1.416-.797-2.213-.951-.815-.776-2.1-.944-2.794-1.88-.298-.382-.56-.947-.264-1.403.257-.506.888-.618 1.403-.631.813.02 1.614.205 2.416.328 5.107.817 10.288.959 15.449.99 2.915-.119 5.839-.022 8.752-.231 1.66-.041 3.322-.05 4.979-.184 1.511-.054 3.032-.013 4.53-.248 1.608.108 3.207-.162 4.813-.177 4.852-.329 9.718-.607 14.533-1.335 1.174-.213 2.386-.38 3.462-.927z"/></svg>