<svg xmlns="http://www.w3.org/2000/svg" xml:space="preserve" x="0px" y="0px" style="enable-background:new 0 0 125.5 56.1" viewBox="0 0 125.5 56.1"><path d="M9.9 47.1c-1.5 0-2.6 1.2-2.6 2.6v6.4h1.9v-3.6h4.7v-1.9H9.2v-.9c0-.4.3-.8.8-.8h3.9V47l-4 .1M33.7 47.1h1.9v9h-1.9zM57.4 53.5v-6.4h-1.9v6.4c0 1.5 1.2 2.6 2.6 2.6H62v-1.9h-3.9c-.3 0-.7-.3-.7-.7M115.8 50.6h-1.4c-.4 0-.8-.3-.8-.5v-.6c0-.3.3-.5.8-.5h3.7v-1.9h-3.7c-1.5 0-2.6 1.1-2.6 2.4v.6c0 1.3 1.2 2.4 2.6 2.4h1.4c.4 0 .8.3.8.6v.6c0 .3-.4.6-.8.6h-3.7v1.9h3.7c1.5 0 2.6-1.1 2.6-2.5v-.6c0-1.4-1.2-2.5-2.6-2.5M88.9 47.1h-.6c-.7 0-1.2.3-1.7.7-.5-.4-1-.7-1.7-.7h-.6c-1.5 0-2.6 1.2-2.6 2.6v6.4h1.9v-6.4c0-.4.3-.8.8-.8h.6c.4 0 .8.3.8.8v6.4h1.9v-6.4c0-.4.3-.8.8-.8h.6c.4 0 .8.3.8.8v6.4h1.9v-6.4c-.2-1.4-1.4-2.6-2.9-2.6M91.6 24.5v10c0 .6.6 1.1 1.3 1.1h1.3V23.4h-1.3c-.7 0-1.3.5-1.3 1.1zM24.4 14.5c-.7 0-1.3.5-1.3 1.1v19.2c0 .6.6 1.1 1.3 1.1.7 0 1.3-.5 1.3-1.1V15.6c0-.6-.6-1.1-1.3-1.1z" style="fill:#fff"/><path d="M114.9 0H10.6C4.8 0 0 4.2 0 9.4v23.9c0 5.2 4.8 9.4 10.6 9.4h104.3c5.9 0 10.6-4.2 10.6-9.4V9.4c0-5.2-4.8-9.4-10.6-9.4zM17 15.7h-3.3V8.9c0-1.1-1.4-2.1-3.1-2.1-1.7 0-3.1 1.2-3.1 2.6v23.8c0 1.4 1.4 2.6 3.1 2.6s3.1-1 3.1-2.1v-8.2H17v8.2c0 2.7-2.9 4.8-6.4 4.8s-6.4-2.3-6.4-5.2V9.4c0-2.8 2.9-5.2 6.4-5.2 3.6 0 6.5 2.1 6.4 4.8v6.7zm11.9 19.2c0 2.1-2 3.8-4.6 3.8-2.5 0-4.6-1.7-4.6-3.8V15.6c0-2.1 2-3.8 4.6-3.8s4.7 1.7 4.6 3.8v19.3zm17.9 3.5h-3.3V8.2c0-.6-.6-1.1-1.3-1.1s-1.3.5-1.3 1.1v30.2h-3.3V8.2c0-.6-.6-1.1-1.3-1.1S35 7.6 35 8.2v30.2h-3.3V8.2c0-2.1 2-3.8 4.6-3.8 1 0 2.1.3 2.9.9h.1c.9-.6 1.9-.9 2.9-.9 2.5 0 4.6 1.7 4.6 3.8v30.2zm6-.1h-3.3V12.1H52.8v26.2zM51.2 9.6l-3-3 2.9-2.9 3.1 2.9-3 3zm13.5 8.8c0 1.4-.6 3.4-1.4 4.7 0 0-1.3 2-1.4 2.1.1.1 1.4 2.1 1.4 2.1.8 1.3 1.4 3.3 1.4 4.7v6.3h-3.3V32c0-1-.5-2.8-1.1-3.7 0 0-.1-.2-.2-.3-.1.1-.2.3-.2.3-.6.9-1.1 2.7-1.1 3.7v6.3h-3.3V32c0-1.4.6-3.5 1.4-4.7 0 0 1.3-2 1.4-2.1-.1-.1-1.4-2.1-1.4-2.1-.8-1.3-1.4-3.3-1.4-4.7v-6.3h3.3v6.3c0 1 .5 2.8 1.1 3.7 0 0 .1.2.2.3.1-.1.2-.3.2-.3.6-.9 1.1-2.7 1.1-3.7v-6.3H64.7v6.3zm21 16.3c0 2.1-2 3.8-4.6 3.8-1 0-2.1-.3-2.9-.9H78c-.8.6-1.8.9-2.9.9-2.5 0-4.6-1.7-4.6-3.8V4.5h3.3v30.2c0 .6.6 1.1 1.3 1.1.7 0 1.3-.5 1.3-1.1V4.5h3.3v30.2c0 .6.6 1.1 1.3 1.1s1.3-.5 1.3-1.1h.1V4.5H85.7v30.2zm11.9 3.7H93c-2.5 0-4.6-1.7-4.6-3.8V24.5c0-2.1 2-3.8 4.6-3.8h1.3v-4.8c0-.6-.6-1.1-1.3-1.1h-4.1v-2.7h4c2.6 0 4.7 1.7 4.7 3.8v22.5zm12.5-14.9c0 1.5-.3 3.7-.7 5.2l-2.9 9.6h-3.4l-2.8-9.4-.1-.3c-.3-1.4-.6-3.6-.6-5.1V12.1h3.3v11.4c0 1.2.3 3.3.6 4.5 0 0 1.2 4.2 1.4 5 0-.2.1-.4.1-.4l1.2-4.4c.3-1.3.6-3.3.6-4.6V12.1H110.1v11.4zm11.4 3.4h-6V34.8c0 .6.6 1.1 1.3 1.1s1.3-.5 1.3-1.1v-3.4h3.4v3.4c0 2.1-2 3.8-4.6 3.8-2.5 0-4.6-1.7-4.6-3.8V15.6c0-2.1 2-3.8 4.6-3.8 2.5 0 4.6 1.7 4.6 3.8v11.3z" style="fill:#fff"/><path d="M116.8 14.5c-.7 0-1.3.5-1.3 1.1v8.6h2.6v-8.6c0-.6-.6-1.1-1.3-1.1z" style="fill:#fff"/></svg>