<svg xmlns="http://www.w3.org/2000/svg" width="141" height="43" fill="none" viewBox="0 0 141 43"><path fill="#fff" fill-opacity="0.5" d="M16.958 35.42c-2.609 0-4.743-2.12-4.743-4.712V11.231c0-2.592 2.134-4.712 4.743-4.712 2.61 0 4.744 2.12 4.744 4.712v19.477c0 2.592-2.135 4.712-4.744 4.712Z"/><path fill="#fff" fill-opacity="0.2" d="M29.213 41.743c-2.61 0-4.744-2.12-4.744-4.713V4.712C24.469 2.121 26.604 0 29.213 0s4.743 2.12 4.743 4.712V37.03c-.04 2.592-2.134 4.713-4.743 4.713Z"/><path fill="#fff" d="M4.744 41.821C2.134 41.821 0 39.701 0 37.11V4.79C0 2.199 2.135.079 4.744.079s4.743 2.12 4.743 4.712v32.318c-.04 2.63-2.134 4.712-4.743 4.712ZM57.02 18.492V7.828c-.027-1.366-.53-2.522-1.508-3.494-.978-.972-2.195-1.445-3.57-1.445-1.348 0-2.512.447-3.49 1.366-.978.92-1.507 2.05-1.587 3.363v10.874H44.09V7.828c.026-2.102.793-3.914 2.327-5.385C47.95.946 49.774.21 51.942.21c2.142 0 3.993.736 5.527 2.233.343.315.634.657.899 1.024.29-.42.634-.814 1.031-1.208C60.933.762 62.81 0 64.979 0c2.168 0 4.019.762 5.552 2.259 1.56 1.524 2.327 3.336 2.354 5.464v10.77h-2.777V7.722c0-1.393-.502-2.575-1.507-3.546-1.005-.972-2.221-1.471-3.623-1.471-1.375 0-2.538.472-3.543 1.392-.978.92-1.534 2.049-1.613 3.388v10.98H57.02v.026ZM90.707.184v2.705H80.474v5.123h10.233v2.679H80.474v5.122h10.233v2.706H77.724V.21h12.983V.184ZM101.522.184c.793 0 1.427.052 1.877.131 2.195.394 3.993 1.445 5.447 3.126 1.454 1.707 2.168 3.678 2.168 5.91 0 1.681-.423 3.257-1.295 4.676a9.336 9.336 0 0 1-3.411 3.31c-1.349.761-2.883 1.13-4.601 1.13h-6.4V.156h6.215v.027Zm.238 15.603c1.295 0 2.406-.29 3.331-.84a6.58 6.58 0 0 0 2.327-2.339 6.33 6.33 0 0 0 .873-3.257c0-1.523-.476-2.863-1.454-4.071-.952-1.182-2.142-1.918-3.623-2.286-.37-.105-.899-.13-1.587-.13h-3.57V15.76h3.703v.027ZM118.286.184v18.308h-2.75V.184h2.75ZM125.981 10.69v7.802h-2.777V7.722c.027-2.153.794-3.966 2.354-5.463C127.091.762 128.942 0 131.137 0c2.168 0 4.019.762 5.579 2.259 1.534 1.497 2.327 3.336 2.354 5.464v10.77h-2.777V10.69h-10.312Zm10.286-2.705v-.262c-.027-1.393-.529-2.575-1.534-3.546-1.005-.972-2.221-1.471-3.622-1.471-1.375 0-2.539.472-3.544 1.392-.978.92-1.533 2.049-1.613 3.388v.5h10.313ZM51.44 43c-2.618 0-4.839-.893-6.664-2.706C42.926 38.483 42 36.276 42 33.701c0-2.574.925-4.754 2.776-6.567 1.851-1.812 4.073-2.705 6.664-2.705 1.904 0 3.623.525 5.209 1.55 1.534.998 2.697 2.338 3.411 3.992h-3.12c-1.349-1.89-3.173-2.837-5.5-2.837-1.851 0-3.438.657-4.733 1.944-1.322 1.287-1.957 2.837-1.957 4.65 0 1.838.661 3.388 1.957 4.649 1.322 1.287 2.882 1.944 4.733 1.944 2.327 0 4.151-.946 5.5-2.837h3.147a9.12 9.12 0 0 1-3.412 3.993C55.09 42.5 53.344 43 51.44 43ZM65.058 35.093v7.802H62.28v-10.77c.027-2.154.794-3.966 2.354-5.463 1.533-1.498 3.384-2.26 5.579-2.26 2.168 0 4.02.762 5.58 2.26 1.533 1.497 2.326 3.335 2.353 5.463v10.77H75.37v-7.802H65.058Zm10.286-2.705v-.263c-.027-1.392-.53-2.574-1.534-3.546-1.005-.972-2.221-1.47-3.623-1.47-1.374 0-2.538.472-3.543 1.391-.978.92-1.533 2.05-1.613 3.389v.499h10.313ZM83.17 37.379c.503 1.47 1.64 2.39 3.385 2.784a8.12 8.12 0 0 0 1.587.158c1.005 0 2.01-.21 3.014-.63 1.084-.473 1.666-1.13 1.693-1.97v-.106c0-.42-.106-.788-.291-1.103-.397-.683-1.296-1.156-2.671-1.445a25.72 25.72 0 0 0-1.85-.262c-.926-.132-1.561-.21-1.852-.263-2.01-.315-3.411-.867-4.204-1.655-.714-.71-1.058-1.707-1.058-3.02v-.263c.026-.42.106-.84.238-1.235.397-1.208 1.243-2.154 2.512-2.89 1.243-.709 2.697-1.05 4.363-1.05h.502c1.93.079 3.544.552 4.76 1.392 1.401.972 2.221 2.39 2.486 4.23h-3.015c-.423-1.445-1.48-2.391-3.146-2.785a6.583 6.583 0 0 0-1.587-.21c-.952 0-1.877.236-2.776.709-.9.473-1.375 1.13-1.428 1.97v.053c0 .288.053.577.158.84.318.578 1.005.998 2.01 1.26.45.132 1.507.29 3.173.526 3.067.447 5.05 1.314 5.95 2.653.555.657.82 1.498.82 2.522v.263c0 .262-.054.499-.106.761-.318 1.288-1.243 2.364-2.724 3.179-1.428.814-3.04 1.208-4.865 1.208h-.53c-1.956-.079-3.622-.525-4.944-1.392-1.534-.972-2.433-2.39-2.724-4.23h3.12ZM97.317 27.292v-2.706h13.962v2.706h-5.606v15.603h-2.75V27.292h-5.606ZM115.959 24.587v15.602h10.233v2.706h-12.983V24.586h2.75ZM141 24.587v2.705h-10.233v5.122H141v2.68h-10.233v5.122H141v2.705h-12.983V24.613H141v-.026Z"/></svg>