<svg xmlns="http://www.w3.org/2000/svg" xml:space="preserve" width="752.23633" height="207.67607" x="0px" y="0px" viewBox="0 0 752.23633 207.67608"><path d="M100.482 0v108.611h33.297V73.695h5.112l20.437 34.916h37.768l-22.67-38.734c12.999-6.841 17.556-18.41 17.556-32.258C191.982 14.76 175.483 0 148.484 0Zm194.372 3.373v22.58h-8.588v28.315h8.588l.002 24.513c0 19.938 13.975 30.326 30.34 30.326h18.902V80.426c-2.851.043-8.62.043-11.782.043a4.513 4.513 0 0 1-4.5-4.5V54.268h13.112V25.953h-13.112V3.373Zm60.292 0v22.58h-8.587v28.315h8.587V78.78c0 19.938 13.976 30.326 30.342 30.326h18.9V80.426c-2.85.043-8.618.043-11.78.043a4.51 4.51 0 0 1-4.499-4.5V54.268h13.11V25.953h-13.11V3.373Zm94.223 1.154c-23.417 0-43.22 16.888-43.22 44.78 0 27.22 19.972 43.1 43.892 43.1 17.542 0 30.474-3.842 39.666-14.315l-19.94-18.973c-6.12 4.64-10.898 6.55-17.456 6.55-5.95 0-13.57-2.34-16.465-9.741h54.89c3.025-33.094-16.271-51.4-41.367-51.4Zm101.045 18.918c-8.17 0-16.162 3.644-21.5 10.086v-7.416h-33.293v82.496h33.293V65.59c0-16.734 18.59-14.477 18.59-2.424v45.445h33.201v-52.26c0-16.13-9.033-32.906-30.29-32.906zm-312.488.168c-26.04 0-46.13 15.767-46.13 43.461s20.09 43.457 46.13 43.457c26.037 0 46.129-14.102 46.129-43.457 0-29.354-20.092-43.46-46.13-43.46zm-104.147 1.973h9.557c8.4 0 14.103 4.592 14.103 11.262 0 6.825-5.227 11.261-14.103 11.261h-9.557zm315.006 3.8c6.153 0 11.15 3.682 12.75 10.08h-25.357c2.38-6.625 7.269-10.08 12.607-10.08zm-216.072 8.651c1.848.066 3.635.707 4.928 2.008 1.869 1.882 2.24 4.502 1.8 7.021-.247 1.42-.68 2.815-1.023 4.211-.74 3.011-1.003 6.377 2.078 8.188 3.27 1.92 5.924.114 7.195-3.08.648-1.629 1.074-3.416 1.797-4.989 2.18-4.738 9.041-5.76 12.336-1.626 2.384 2.99 2.57 7.706.166 10.746-2.942 3.72-7.089 2.163-11.443 3.156-1.936.441-3.125 2.116-3.197 3.933-.072 1.818.973 3.78 3.507 4.797 3.41 1.369 7.178 1.27 10.647 2.412 6.242 2.057 8.095 7.373 6.728 11.204-1.366 3.83-5.953 6.175-12.591 2.289-3.93-2.3-4.86-5.192-7.6-8.205-1.894-2.084-3.966-2.44-5.291-1.616-1.325.824-1.903 2.829-.807 5.463.814 1.955 2.244 3.94 2.203 6.14-.068 3.722-3.279 5.667-6.593 5.827-3.315.16-6.734-1.465-7.217-4.885-.534-3.78 1.424-6.448 1.342-9.806-.05-2.01-1.211-3.064-2.625-3.264-1.414-.2-3.08.453-4.135 1.857-1.248 1.663-2.545 3.44-4.275 4.643-3.522 2.447-8.916 2.664-11.069-1.62-1.178-2.343-.966-5.493.672-7.577 1.914-2.436 4.906-2.23 7.7-2.17 1.202.026 2.43.099 3.63.06 1.643-.053 2.964-.561 3.096-2.41.166-2.324-1.84-3.25-3.725-3.84-2.606-.816-7.174-1.463-9.236-3.101-4.138-3.287-3.605-8.99 1.48-10.692 1.659-.554 3.78-.529 5.399.155 2.387 1.008 4.042 3.868 5.389 5.95 1.434 2.22 2.743 3.13 5.482 2.73 3.257-.477 3.848-3.068 2.768-5.776-.87-2.18-2.587-3.346-4.506-4.504-3.374-2.036-4.575-6.109-2.75-9.576 1.408-2.677 4.66-4.162 7.74-4.053zM0 96.42v31.506h28.11v77.107h31.935v-77.107H88.32V96.42Zm416.688 3.287v22.578H408.1v28.313h8.587l.002 24.513c0 19.94 13.972 30.328 30.338 30.328h18.903v-28.681c-2.85.044-8.62.045-11.778.045a4.514 4.514 0 0 1-4.502-4.502v-21.703h13.112v-28.313H449.65V99.707Zm323.003 13.346c-3.477 0-6.426 1.226-8.84 3.717-2.38 2.456-3.576 5.43-3.576 8.98 0 3.493 1.187 6.48 3.577 8.926 2.403 2.46 5.362 3.672 8.84 3.672 3.478 0 6.468-1.226 8.886-3.672 2.432-2.46 3.659-5.433 3.658-8.926 0-3.549-1.236-6.51-3.658-8.98-2.428-2.478-5.408-3.717-8.887-3.717zm-246.5.01-6.11 5.076 7.134 6.22c-6.685-1.282-13.449 1.02-17.649 7.383-.72 1.093-1.024 1.719-.962 2.036.06.316.482.296 1.226.177 3.454-.551 7.85-1.088 11.807-1.056-11.009 7.328-18.113 18.397-18.041 32.523.126 24.94 19.891 41.006 43.922 41.006 23.809 0 49.574-17.46 49.091-43.037-.516-27.382-22.354-44.195-50.845-39.854.016-2.413.807-4.282 2.793-5.341.987-.527 1.65-.503 1.65-.887 0-.205-.136-.43-.672-.856-5.834-4.645-14.202-.073-16.863 6.215zm246.5 3.289c2.565 0 4.698.932 6.461 2.746 1.77 1.82 2.645 4.035 2.645 6.654 0 2.605-.868 4.797-2.645 6.596-1.755 1.777-3.896 2.66-6.46 2.66-2.51 0-4.685-.874-6.417-2.66-1.733-1.789-2.607-3.99-2.607-6.596 0-2.619.882-4.845 2.607-6.654 1.74-1.824 3.908-2.746 6.416-2.746zm-129.642 2.943c-23.414 0-43.215 16.889-43.215 44.78 0 27.221 19.967 43.1 43.89 43.1 17.544 0 30.47-3.842 39.667-14.311l-19.94-18.975c-6.124 4.64-10.896 6.55-17.455 6.55-5.95 0-13.576-2.343-16.47-9.743h54.896c3.02-33.093-16.277-51.4-41.373-51.4zm125 .412V131.2h3.133v-3.146h1.552l2.203 3.146h3.522l-2.703-3.671c1.606-.723 2.383-1.97 2.383-3.745 0-2.745-2.134-4.076-4.891-4.076zm-43.658.037c-19.814 0-36.503 13.419-36.502 28.74 0 18.38 19.928 27.385 36.017 26.989 5.089-.126 6.485.45 6.485 2.818 0 2.418-3.259 4.219-7.59 4.219-8.066 0-15.226-2.605-23.553-8.113L653.1 196.385c8.253 8.191 25.835 11.273 37.199 11.291 22.072.035 37.474-13.911 37.474-29.684 0-20.861-16.448-27.397-38.41-27.525-3.623-.021-5.217-1.205-5.217-3.463 0-1.937 2.962-3.407 5.477-3.435 3.772-.043 13.287 1.712 22.68 6.375l12.511-20.235c-8.698-6.013-20.536-9.965-33.423-9.965zm-569.155.114c-25.626 0-45.396 15.765-45.396 43.459 0 27.694 19.77 43.459 45.396 43.459 25.628 0 45.399-14.105 45.399-43.46 0-29.354-19.772-43.458-45.399-43.458zm226.801 0c-21.613 0-38.29 16.81-38.289 43.459 0 27.23 16.676 43.459 38.29 43.459 8.316 0 15.756-3.913 21.064-11.036v8.852h32.253v-82.498h-32.253v9.158c-5.067-7.096-12.639-11.394-21.065-11.394zm-123.78.017c-7.468 0-14.908 2.68-20.202 7.97v-5.751h-32.256v82.498h32.256V160.74c0-15.94 17.24-13.194 17.24-1.593v45.445h32.564V160.74c0-15.94 17.592-13.194 17.592-1.593v45.445h33.09v-52.258c0-19.073-11.522-32.459-32.78-32.459-8.253 0-16.797 3.78-22.396 10.385-4.528-7.48-12.644-10.385-25.107-10.385zm512.925 2.535h1.51c1.511 0 2.302.459 2.302 1.371 0 .958-.79 1.471-2.303 1.471h-1.51zm-128.717 21.746c6.152 0 11.155 3.68 12.75 10.079H596.86c2.377-6.629 7.27-10.079 12.604-10.079zm-487.133 4.426c8.033 0 14.232 4.386 14.232 13.512 0 9.125-6.199 13.512-14.232 13.512-8.035 0-14.232-4.902-14.232-13.512 0-8.611 6.197-13.512 14.232-13.512zm234.074 1.36c7.035 0 13.112 5.305 13.112 12.994 0 7.69-4.802 13.459-13.112 13.459s-13.344-5.77-13.344-13.46c0-7.688 6.31-12.993 13.344-12.993z" style="fill:#f93208;fill-opacity:1;stroke:none;stroke-width:.727772"/></svg>