<svg xmlns="http://www.w3.org/2000/svg" width="466" height="108" fill="none" viewBox="0 0 466 108"><path fill="url(#a)" fill-rule="evenodd" d="m.079 22.433 4.14 24.56c.62-1.174 1.946-.984 3.212-.452 1.098.458 2.418 1.318 4.049 2.832l1.69 7.103c-1.505-1.701-2.705-2.74-3.834-3.26-.61-.288-1.845-.576-1.43 1.141.833 3.47 6.623 6.783 8.603 13.726 1.66 6.765-1.502 6.71-3.828 5.317-1.086-.65-2.038-1.395-2.86-2.575l-2.762-7.48c.945 1.664 1.852 2.863 3.857 4.639.899.795 2.556 1.93 1.703-1.159-1.383-3.109-4.379-4.425-6.647-9.444l3.233 19.196 37.159 26.836V61.879L.079 22.433ZM21.257 58.07l-2.917-1.338 2.061 7.297-4.168-2.083-6.397-21.204 4.137 1.544 2.63 8.304 2.91 1.224-2.216-8.312 4.595 1.714 6.023 22.578-4.598-2.298-2.06-7.426Zm23.858 24.675-4.931-2.793-3.955-14.142-.029-.016.323 12.1-3.842-2.16c.95 1.866 1.702 4.222 2.178 7 1.076 6.279-.294 8.41-3.319 6.704-2.832-1.594-4.932-5.385-5.959-11.054-1.012-5.642-.022-8.164 2.756-7.131 1.323.49 2.548 1.576 3.594 3.183l-5.036-18.788 3.448 1.29 3.24 12.998.028.013-.35-11.925 4.064 1.512 3.886 14.178.036.018-.574-12.946 4.442 1.634v20.325Z" clip-rule="evenodd"/><path fill="url(#b)" fill-rule="evenodd" d="M29.096 75.547c-1.157-.486-.681 2.684-.393 4.298.325 1.858.969 4.836 2.101 5.426 1.285.666.804-2.311.48-4.211-.303-1.67-.963-5.008-2.188-5.513Z" clip-rule="evenodd"/><path fill="url(#c)" fill-rule="evenodd" d="m71.067 11.168-4.5 16.943-8.182-1.074 1.132-18.281 9.064 1.227L47.668.033l-41.684 22.9L20.563 33.92l-.788-1.272c-3.664-5.925-2.372-12.063 9.174-18.06 10.618-5.505 16.41-3.112 19.459 2.704 5.395 10.32-4.097 10.436-.783 16.485l-10.838 6.344-.867-1.478c-4.517-7.683 3.412-9.428.343-14.888-.77-1.366-2.26-2.147-3.743-1.344-1.775.962-1.517 3.39-.335 5.441l.855 1.447-10.71 5.952 20.778 15.656-4.297-7.33 10.646-6.349 5.855 10.696-8.799 5.55 5.21 3.922 42.385-35.263-23.041-10.965ZM64.88 40.845l-8.923-1.136 1.444-9.468 9.103 1.183-1.624 9.421Zm13.597-11.013h.008l-5.898 6.592 1.636-5.461c-1.884-.503-3.279-2.206-3.279-4.246a4.413 4.413 0 1 1 8.823 0c0 1.215-.49 2.318-1.29 3.115Z" clip-rule="evenodd"/><path fill="url(#d)" fill-rule="evenodd" d="m54.083 89.676 1.538-1.452c1.063-1.005 2.104-1.607 1.964.585-.118 1.972-1.28 3.694-2.317 4.686l-1.49 1.4.305-5.219Zm35.984-20.107-1.847-5.538-3.192 10.218-5.741 5.334 6.05-16.647-3.377-7.547 6.284-5.961 1.43 5.215 3.003-9.407 4.562-4.33 1.242-12.96L50.65 60.393l-1.002 19.136 9.337-8.773c2.59-2.43 5.03-3.362 4.72 1.56-.224 3.538-1.419 6.437-3.45 9.182l-.002.075c2.025-1.468 3.124.115 2.96 2.67-.405 6.411-3.444 9.9-6.503 12.81l-8.401 7.976-.124 2.388 45.653-30.935 1.095-11.434-4.865 4.522Zm-31.998 9.032c.112-1.92-.792-1.628-1.814-.661l-1.567 1.468-.288 4.977 1.428-1.349c1.007-.94 2.121-2.487 2.241-4.435Zm37.183-16.904 1.696-17.729-4.48 12.273 2.784 5.456Zm-22.301 6.626c2.281-2.156 2.704-6.576 2.956-9.392.18-2.406.418-7.078-1.815-4.954-2.156 2.06-2.703 7.012-2.885 9.423-.219 2.77-.318 6.868 1.744 4.923Zm-.487 6.112c-5.19 4.877-7.9 3.32-7.279-5.318.615-8.646 4.071-16.389 9.415-21.518 5.392-5.167 8.21-3.38 7.425 5.53-.782 8.894-4.329 16.388-9.561 21.306Z" clip-rule="evenodd"/><path fill="#FFF" fill-rule="evenodd" d="M147.171 40.004a37.654 37.654 0 0 0-12.31-2.083c-2.498 0-6.838.062-6.838 2.74 0 5.406 21.822.296 21.822 16.296 0 11.115-10.993 13.912-20.217 13.912-6.123 0-11.175-.59-17.125-1.961V58.144c4.282 1.787 9.518 2.732 14.272 2.732 3.746 0 7.133-.773 7.133-2.853 0-5.592-21.817-.532-21.817-16.651 0-11.421 11.892-13.437 21.345-13.437 4.46 0 9.392.536 13.735 1.426v10.643ZM182.545 28.644h15.936v41.512h-15.936V55.232h-10.646v14.924h-15.942V28.644h15.942v14.333h10.646V28.644ZM220.439 49.405c0-3.865.472-11.484 6.36-11.484 6.066 0 6.486 7.619 6.549 11.484-.063 4.459-.245 11.471-6.549 11.471-5.703 0-6.36-7.012-6.36-11.47Zm29.556 0c0-13.925-8.688-21.47-23.196-21.47-14.51 0-23.015 7.545-23.015 21.47 0 14.152 8.505 21.464 23.015 21.464 14.508 0 23.196-7.312 23.196-21.464ZM272.164 55.165h.123l6.656-26.521h15.284l6.476 26.521h.13l5.115-26.521h14.208l-9.992 41.512h-17.123l-6.958-27.119h-.116l-6.607 27.119h-17.483l-9.692-41.512h14.927l5.052 26.521ZM341.347 53.092h4.281c2.973 0 5.945.65 5.945 4.216 0 3.212-3.144 4.293-6.065 4.293h-4.161v-8.509Zm-14.983 17.064h24.081c8.626 0 17.071-1.07 17.071-11.535 0-4.164-3.573-8.684-9.336-9.466v-.118c5.531-1.421 8.557-4.449 8.557-10.17 0-7.902-7.065-10.223-14.268-10.223h-26.105v41.512Zm14.983-33.663h4.344c2.853 0 5.468.959 5.468 4.047 0 3.157-3.042 3.983-5.826 3.983h-3.986v-8.03ZM387.779 49.405c0-3.865.472-11.484 6.358-11.484 6.071 0 6.488 7.619 6.543 11.484-.055 4.459-.237 11.471-6.543 11.471-5.705 0-6.358-7.012-6.358-11.47Zm29.557 0c0-13.925-8.693-21.47-23.199-21.47-14.504 0-23.009 7.545-23.009 21.47 0 14.152 8.505 21.464 23.009 21.464 14.506 0 23.199-7.312 23.199-21.464Z" clip-rule="evenodd"/><path fill="#FFF" fill-rule="evenodd" d="M416.836 28.644h18.372l6.191 12.255 6.658-12.255h16.771l-13.915 20.217 14.983 21.295h-18.5l-7.787-14.027-7.252 14.027h-17.308l14.871-21.295-13.084-20.217Z" clip-rule="evenodd"/><defs><linearGradient id="a" x1="0.0786743" x2="46.364" y1="62.924" y2="62.924" gradientUnits="userSpaceOnUse"><stop stop-color="#E95328"/><stop offset="1" stop-color="#E95328"/></linearGradient><linearGradient id="b" x1="28.356" x2="31.6467" y1="80.4307" y2="80.4307" gradientUnits="userSpaceOnUse"><stop stop-color="#E95328"/><stop offset="1" stop-color="#E95328"/></linearGradient><linearGradient id="c" x1="64.4187" x2="35.6733" y1="-10.7733" y2="68.2026" gradientUnits="userSpaceOnUse"><stop stop-color="#FBBA00"/><stop offset="1" stop-color="#FBBA00"/></linearGradient><linearGradient id="d" x1="98.4813" x2="48.184" y1="67.6813" y2="67.6813" gradientUnits="userSpaceOnUse"><stop stop-color="#E95328"/><stop offset="1" stop-color="#E95328"/></linearGradient></defs></svg>