<svg xmlns="http://www.w3.org/2000/svg" width="160" height="48" fill="none" viewBox="0 0 160 48"><path fill="#FAFAFA" fill-rule="evenodd" d="M0 24C0 10.768 10.738 0 23.934 0 37.13 0 47.868 10.768 47.868 24S37.13 48 23.934 48C10.738 48 0 37.232 0 24Zm2.488 0c0 11.86 9.618 21.511 21.446 21.511 11.828 0 21.453-9.65 21.459-21.511 0-11.86-9.625-21.512-21.453-21.512S2.488 12.14 2.488 24Zm26.25 6.503h1.042c.444 0 .806.345.806.772 0 .428-.368.773-.812.773H18.047c-.45 0-.812-.345-.812-.773 0-.427.362-.772.812-.772h4.863v-1.692h-4.762c-.445 0-.812-.345-.812-.767 0-.427.367-.772.812-.772h4.762v-1.175h-4.762c-.445 0-.812-.345-.812-.773 0-.421.367-.766.812-.766h11.52c.45 0 .811.345.811.766 0 .428-.367.772-.811.772h-4.739v1.176h4.739c.45 0 .811.345.811.773 0 .421-.367.766-.811.766h-.93v1.692Zm-3.809 0h1.866v-1.692h-1.866v1.692Zm-.805-10.97h-.403a.809.809 0 0 0-.805.814v.933h-4.762c-.812 0-.818.813-.818.813l.006 1.271c0 .446.361.814.812.814h.396a.814.814 0 0 0 .812-.814v-.546h9.11v.529c0 .451.36.813.805.813h.396a.814.814 0 0 0 .812-.813v-1.254c0-.005-.006-.807-.811-.807h-4.739v-.933a.823.823 0 0 0-.811-.82Zm6.16-2.583.106.054c.456.269.485.723.49.815 0 .01.001.015.002.016-.048.909-.918.98-1.19.897-.67-.142-2.92-1.146-4.757-3.546v2.798a.809.809 0 0 1-.805.813h-.403a.809.809 0 0 1-.806-.813v-2.798c-1.836 2.4-4.08 3.404-4.756 3.546-.266.083-1.143.012-1.19-.897v-.001a.967.967 0 0 1 .592-.878c1.428-.623 2.736-1.954 2.736-1.954h-1.841a1.1 1.1 0 0 1-1.096-1.104V9.514c0-.605.486-1.098 1.096-1.098h4.454v-.974h-4.857c-.45 0-.812-.345-.812-.772 0-.428.368-.772.812-.772h4.857v-.802c0-.452.36-.814.805-.814h.403c.438 0 .805.368.805.814v.796h4.851c.45 0 .811.35.811.772 0 .427-.367.772-.81.772h-4.852v.974h4.448a1.1 1.1 0 0 1 1.102 1.099v4.383c0 .611-.492 1.104-1.102 1.104h-1.83s1.31 1.33 2.737 1.954Zm-9.85-5.974h2.476V9.954h-3.305a.345.345 0 0 0-.356.35v2.804c0 .196.13.356.356.356h3.305v-.95h-2.476c-.444 0-.812-.345-.812-.772 0-.422.368-.767.812-.767Zm4.495 1.532v.944h3.311c.225 0 .344-.172.344-.35v-2.81c0-.178-.166-.35-.344-.35h-3.31v1.028h2.47c.45 0 .81.344.81.766 0 .427-.367.772-.81.772h-2.47Zm67.325-.891c-6.746 0-12.213 5.547-12.213 12.383 0 6.842 5.467 12.383 12.213 12.383 6.746 0 12.213-5.547 12.213-12.383.006-6.842-5.46-12.383-12.213-12.383Zm.048 23.53c-4.952 0-8.973-4.988-8.973-11.147 0-6.153 4.015-11.148 8.973-11.148 4.951 0 8.973 4.99 8.973 11.148 0 6.159-4.016 11.148-8.973 11.148ZM135.568 24c0-6.836 5.473-12.383 12.219-12.383 6.746 0 12.219 5.541 12.213 12.383 0 6.836-5.467 12.383-12.213 12.383-6.746 0-12.219-5.541-12.219-12.383Zm3.293 0c0 6.159 4.022 11.148 8.973 11.148 4.952 0 8.974-4.99 8.968-11.148 0-6.159-4.016-11.148-8.968-11.148-4.957 0-8.973 4.995-8.973 11.148Zm-15.245-10.845h.681c1.143 0 2.067.933 2.067 2.073v8.38h-12.681v-8.38c0-1.146.93-2.073 2.073-2.073h.675v-.665h-8.979v.665h.682c1.143 0 2.061.933 2.067 2.073v17.657c0 1.146-.93 2.073-2.073 2.073h-.682v.659h8.98v-.66h-.682a2.08 2.08 0 0 1-2.067-2.072v-7.87h12.681v7.864c0 1.146-.93 2.073-2.073 2.073h-.675v.659h8.979v-.66h-.681a2.076 2.076 0 0 1-2.067-2.072V15.228c0-1.146.93-2.073 2.079-2.073h.675v-.665h-8.979v.665Zm-67.989 4.437.628-5.102h19.972l.628 5.102h-.545s-1.297-3.736-2.902-3.736H67.97v19.035a2.068 2.068 0 0 0 2.06 2.06h.943v.66h-9.465v-.66h.942a2.06 2.06 0 0 0 2.06-2.06V13.856h-5.573c-1.954 0-2.766 3.736-2.766 3.736h-.544Z" clip-rule="evenodd"/></svg>