<svg xmlns="http://www.w3.org/2000/svg" xml:space="preserve" width="411.715" height="115.612"><defs><filter id="a" width="24" height="27" x="323" y="376" color-interpolation-filters="sRGB" filterUnits="userSpaceOnUse"><feColorMatrix result="invert" values="-1 0 0 0 1 0 -1 0 0 1 0 0 -1 0 1 0 0 0 1 0"/><feFlood flood-color="#fff" result="bg"/><feBlend in="invert" in2="bg"/></filter><filter id="b" width="22" height="27" x="378" y="377" color-interpolation-filters="sRGB" filterUnits="userSpaceOnUse"><feColorMatrix result="invert" values="-1 0 0 0 1 0 -1 0 0 1 0 0 -1 0 1 0 0 0 1 0"/><feFlood flood-color="#fff" result="bg"/><feBlend in="invert" in2="bg"/></filter><filter id="c" width="24" height="27" x="537" y="376" color-interpolation-filters="sRGB" filterUnits="userSpaceOnUse"><feColorMatrix result="invert" values="-1 0 0 0 1 0 -1 0 0 1 0 0 -1 0 1 0 0 0 1 0"/><feFlood flood-color="#fff" result="bg"/><feBlend in="invert" in2="bg"/></filter><filter id="d" width="24" height="37" x="738" y="377" color-interpolation-filters="sRGB" filterUnits="userSpaceOnUse"><feColorMatrix result="invert" values="-1 0 0 0 1 0 -1 0 0 1 0 0 -1 0 1 0 0 0 1 0"/><feFlood flood-color="#fff" result="bg"/><feBlend in="invert" in2="bg"/></filter><filter id="e" width="25" height="26" x="1161" y="377" color-interpolation-filters="sRGB" filterUnits="userSpaceOnUse"><feColorMatrix result="invert" values="-1 0 0 0 1 0 -1 0 0 1 0 0 -1 0 1 0 0 0 1 0"/><feFlood flood-color="#fff" result="bg"/><feBlend in="invert" in2="bg"/></filter><mask id="f" width="23.66" height="27.26" x="323.2" y="376.14" maskUnits="userSpaceOnUse"><path d="M329 388h13c-.01-7.9-13-7.6-13 0z" style="filter:url(#a);fill:#fff"/></mask><mask id="g" width="22.24" height="26.57" x="377.71" y="376.72" maskUnits="userSpaceOnUse"><path d="M395 392h-8.4c-1.4 0-3.7 1.2-3.7 3.3 0 1.6.73 3.3 4.1 3.3 5.3 0 6.8-2 8-6.7z" style="filter:url(#b);fill:#fff"/></mask><mask id="h" width="23.66" height="27.26" x="536.67" y="376.14" maskUnits="userSpaceOnUse"><path d="M542 388h13c0-7.9-13-7.6-13 0z" style="filter:url(#c);fill:#fff"/></mask><mask id="i" width="23.8" height="37.42" x="738" y="377.4" maskUnits="userSpaceOnUse"><path d="M743 389c0-3.3 2.1-7.2 6.8-7.2 5.3 0 6.7 2.6 6.7 8.1 0 3.8-.9 7.6-6.2 7.6-3.9 0-7.3-1.6-7.3-8.5z" style="filter:url(#d);fill:#fff"/></mask><mask id="j" width="24.8" height="26" x="1160.7" y="377.26" maskUnits="userSpaceOnUse"><rect width="14" height="17" x="1166" y="382" rx="7" style="filter:url(#e);fill:#fff"/></mask></defs><g style="fill:#fff"><path d="M668 278c-9.9-3.4-21-14-28-26-5-8.5-9.6-22-12-35-2.1-13-2.4-54-.42-70 .74-6.2 1.1-12 .73-14-1.2-5-1.6-5-91-4.3-45 .35-84 .9-86 1.2-2.7.53-3.6.08-7-3.6-4.3-4.6-5.8-6.9-5.1-7.6.27-.27 9.8 0 21 .58s53 1.1 92 1.1c78 0 74 .25 82-5.8a52 52 0 0 1 6.8-4.5c3-1.6 3.3-1.5 7 1.2a48 48 0 0 1 7.4 7.2c8.4 10 8.5 12 1.2 16-8.9 4.7-11 14-11 46 0 30 2.9 47 10 57 3.5 5.3 9.7 9.9 12 9 2.3-.9 5.5-8.4 10-25 4.5-16 5.6-18 7.4-16 .73.73.37 7.8-1.2 23l-2.2 22 2.7 10a113 113 0 0 1 2.7 12c0 .93-1.3 3-2.9 4.6-2.4 2.4-3.7 2.9-7.8 2.9a37 37 0 0 1-9.9-1.8zM8 275.7c1.4-1.1 7.1-4.9 13-8.3 5.9-3.4 15-9.6 20-14 13-9.7 37-34 45-45 12-18 23-42 28-67 3-15 3-14 .5-17-1.9-1.9-3.3-2-41-1.9-22 0-41 .43-44 .88l-5 .81-4.8-5.1c-6.2-6.7-6.2-8-.06-7.2 2.6.33 25 .87 50 1.2 39 .51 45 .38 47-.89s2-3.3 2.8-19c.47-9.6.71-25 .55-34-.3-16-.38-17-2.7-19-2.32-2-4.5-1.9-46-1.8-24 0-47 .39-51 .78s-8.2.47-8.6.18c-2.4-1.6-9.1-10-8.4-11 .45-.43 6.9-.39 14 .09s57 .91 109 .93c92 0 96 0 98-1.8 1.3-1 4.8-5.6 7.9-10 6.6-9.9 7.9-11 12-8.9 4.1 2.1 15 13 20 18s5 9.3 1.3 11c-1.6.59-25 1-59 1-31 0-57 .35-57 .77a8.1 8.1 0 0 0-2.2 3.3c-.91 2.4-3 57-2.4 65 .43 6.3-.35 6.1 32 6.1 16 0 30-.43 32-1 2-.57 4.7-4.2 7.6-8.4 5.5-8.2 8.4-11 11-9.9 5.5 2 26 19 27 22a3.6 3.6 0 0 1-1 3.8c-1.4 1.5-6.8 1.7-47 2.1l-46 .5-.33 2.4c-.8 5.6 13 35 24 52 18 27 38 46 61 59 3.6 2 13 6.4 20 9.7 8.8 3.8 14 6.6 14 7.5 0 .9-2.8 2.1-9.5 3.5-12 2.6-18 5.8-24 12-2.7 2.8-5.7 5.1-6.5 5.1-5.1 0-33-27-45-44-21-29-31-51-39-87-2-8.9-3.9-17-4.2-18a3.7 3.7 0 0 0-6.8.29c-.27.92-1.9 8.6-3.6 17a264 264 0 0 1-6.6 26c-11 32-34 62-66 84-16 11-48 25-57 24h-2.7zm1308-.55a23 23 0 0 1-3.2-5.4c-2.8-6.6-10-12-23-17-6.9-2.5-9.2-4.5-7.5-6.3.82-.81 5.8-.83 18 0 20 1.2 23 1 26-2.4l2.3-2.5.56-44c.31-24 .18-45-.27-47s-1.6-3.4-2.6-3.8c-1-.4-27-.56-57-.44l-55 .22-3.9-4.4c-5.7-6.5-5.3-7.3 2.8-6.5 3.7.35 30 .9 59 1.2 52 .6 53 .59 54-1.4 2.8-3.1 3.4-23 1.2-38-.93-6.3-1.4-12-1.1-14 .62-2.5.72-2.5 8.1-1.8l7.5.7 3.6-4c5-5.6 25-33 28-38 1.2-2.3 1.9-4.6 1.5-5-1-1-100-1-114 0l-9.5.68-4.2-5.1c-2.3-2.8-4.2-5.5-4.2-6s7.3-.61 18-.15c10 .43 41 .77 69 .77h50l5.7-6.4c4.8-5.4 6.1-6.3 8.2-5.8 3.8.94 20 12 24 16 5.6 6.4 3.9 9-8.1 13a54 54 0 0 0-14 7.3c-13 9.1-44 33-44 33-.16.43 1.3 1.7 3.2 2.9 1.9 1.2 3.5 2.7 3.5 3.5 0 .8-1.6 3.5-3.6 6.1l-3.6 4.7-.14 16c-.14 16-.11 17 2.3 18 2.41 1 3.9 1.9 37 1.7l35-.29 4.1-4.5c12-13 13-14 15-14 5 0 29 19 29 23s-.83 4.2-61 4.5c-53 .27-58 .44-59 2s-1.9 3.2-1.3 48c.68 48 .41 53-3.6 61-4.3 8.4-17 18-26 19-3 .48-4.2.21-5.5-1.3zm-886-.35c-1.1-1.7 1-3.4 13-9.5a199 199 0 0 0 36-24c16-13 30-29 30-34 0-2.8-11-13-28-26-9.6-7.2-19-14-20-16-2.8-2.6-2.8-4.2-.08-4.2 3 0 25 9.1 44 18l19 9.1 2.6-1.9c5.7-4.2 18-27 22-42 1.1-4.2 2.5-8 2.9-8.5 1.3-1.4 17 6.8 22 12 5.8 5.3 5.7 8.1-.51 12-3.2 1.8-6.5 6-17 21-7.2 11-13 20-13 21 0 1.6 2.7 5 8.9 11 16 15 22 25 22 32 0 6.9-2.2 9.5-10 12-3.1 1-9-1.2-12-4.4a161 161 0 0 1-10-14c-7.2-11-12-16-16-16-1 0-6.4 3.9-12 8.6-20 17-47 33-67 40-11 4-15 4.7-16 3.3zm515-15c-.69-1.8.06-2.2 13-7.5 28-11 47-23 62-38 14-14 22-28 27-48 3.2-13 3.2-39 0-52-7.1-28-25-47-51-55-8.5-2.4-28-4.6-32-3.7-3.4.86-3.6 2-2.1 11 2.5 15 2.9 36 .93 48-4.5 27-20 59-42 88-18 24-35 32-50 25q-11-5.3-19-22c-7.1-15-9-24-9-44 0-14 .36-18 2.2-25 6-22 17-39 36-57 15-14 30-24 48-29 15-4.9 21-5.6 44-5.6 19 0 23 .3 30 2.3 28 6.9 52 27 63 53 5.5 13 7.4 22 8 38 .61 17-.52 25-5.4 40-6.1 19-15 33-30 47a105 105 0 0 1-28 20c-20 10-65 20-67 15zm-49-62c9.7-4.7 28-30 41-54 11-22 17-42 17-64 .59-15-.14-20-2.8-22-3-1.9-17 1.8-28 7.2-27 13-49 38-58 65-3.2 10-3.9 30-1.5 41 3.2 15 9 24 17 28a16 16 0 0 0 15-.21zm-475-94c-.29-.47 3.1-4.8 7.6-9.7 23-25 39-49 53-80 5.6-12 6.2-13 8.6-13 3.8.25 19 7.8 23 12 4.7 4.1 4.3 6.6-1.5 8.8a25 25 0 0 0-8.1 5.8c-4.4 5-8.7 13-7.6 14 1.1 1 112 1.7 123 .78l8.2-.65 7.1-8.4c5.1-6.1 7.7-8.4 9.4-8.4 4.6 0 22 15 23 20 .88 3.5-.4 4.7-6.3 5.6-2.6.44-42 .82-88 .85l-84 .06-3.4 2.3c-1.9 1.3-8.3 7.4-14 14-17 17-36 32-46 36-2.2.8-4.3 1.1-4.6.6zm50-19c-3.3-3.8-4.1-5.4-3.1-5.8.77-.3 7.9-.08 16 .49 21 1.5 116 1.4 119-.1 1.4-.64 4.8-4.2 7.5-8 4.2-5.8 5.4-6.8 7.9-6.8 4.1 0 11 5.2 16 13 5.6 7.6 5.5 9.6-.53 11-1.9.4-38 .86-81 1l-78 .31zM260 402h-6l-10-35h5l8 27 9-25h4l8 25 8-27h6l-10 35h-6l-8-22z" class="f" style="fill:#fff" transform="matrix(.28 0 0 .28 -.907 -.308)"/><g mask="url(#f)" style="fill:#fff;mask:url(#f)" transform="matrix(.28 0 0 .28 -.907 -.308)"><path d="M329 392h18c.59-21-24-21-24 0 0 11 16 15 23 7l-3.8-3.7c-4.4 5.6-13 3.4-13-3.3z" class="f" style="fill:#fff"/></g><g mask="url(#g)" style="fill:#fff;mask:url(#g)" transform="matrix(.28 0 0 .28 -.907 -.308)"><path d="m400 403 .09-20c-8.4-12-19-5.2-21-.91l3.6 2.9c6.8-7.6 14-.93 12 2.6h-11c-4.4 1-6.1 3.5-6.1 7.4a8.4 8.4 0 0 0 8.2 8c7.4-.12 9.5-4.1 9.5-4.1v3.8z" class="f" style="fill:#fff"/></g><g mask="url(#h)" style="fill:#fff;mask:url(#h)" transform="matrix(.28 0 0 .28 -.907 -.308)"><path d="M542 392h18c.59-21-24-21-24 0 0 11 16 15 23 7l-3.8-3.7c-4.3 5.6-13 3.4-13-3.3z" class="f" style="fill:#fff"/></g><path d="m436 371 5.5-4v10h6.6v4.8h-6.6v14c0 3.4 3.9 2.7 5.4 1.8l1.3 4.6c-7.5 2.5-12-.52-12-5.7v-15h-4.8v-4.8h4.8zM964 371l5.5-4v10h6.6v4.8h-6.5v14c0 3.4 3.9 2.7 5.4 1.8l1.2 4.6c-7.5 2.5-12-.52-12-5.7v-15h-4.8v-4.8h4.8zM489 403h-5.3v-36h5.3v13a11 11 0 0 1 7.7-3.6c3.8-.07 9.6 5.8 9.3 8.5v18h-5.9v-16a4.7 4.7 0 0 0-5-5.1c-2.6 0-6 3.2-6 5.1zM1000 403h-5.3v-36h5.3v13a11 11 0 0 1 7.7-3.6c3.8-.07 9.6 5.8 9.3 8.5v18h-5.9v-16a4.7 4.7 0 0 0-5-5.1c-2.6 0-6 3.2-6 5.1zM860 402h-6l-10-35h6l7 27 9-25h4l8 25 8-27h6l-10 35h-6l-8-22zM595 378v26h5.6v-14c.14-4.1 3.8-7 6-6.9a5.3 5.3 0 0 1 3.2.78l2.5-3.4c-1.1-1.9-2.7-2.6-4.9-2.6-2.8 0-4.8 1.4-7 3.7v-3.3zM644 377h5.6v26H644zM644 367h6.3v6.3H644zM922 377h5.6v26H922zM922 367h6.3v6.3H922zM685 378v26h5v-15c.07-4.5 2.6-5.8 6.7-5.9 1.6-.05 5 1 5 3.4v18h4.9v-18a8.6 8.6 0 0 0-8.5-8.1c-4.2 0-7.3 2.2-8.1 3.4v-3z" class="f" style="fill:#fff" transform="matrix(.28 0 0 .28 -.907 -.308)"/><g mask="url(#i)" style="fill:#fff;mask:url(#i)" transform="matrix(.28 0 0 .28 -.907 -.308)"><path d="M762 378v28c0 4.3-5 8.9-12 8.9-2.6 0-9.7-1.6-11-5.6l3.4-3.2a9.2 9.2 0 0 0 7.6 4.1c5.1 0 6.5-2.8 6.5-11-1.9 1.8-4.8 3.5-7.4 3.5-6.9.09-11-5.9-11-12 0-7.9 3.7-14 11-14a11 11 0 0 1 7.8 3.4v-3.3z" class="f" style="fill:#fff"/></g><path d="M1129 367h7l-14 22v14h-6v-14l-13-22h6l10 16z" class="f" style="fill:#fff" transform="matrix(.28 0 0 .28 -.907 -.308)"/><g mask="url(#j)" style="fill:#fff;mask:url(#j)" transform="matrix(.28 0 0 .28 -.907 -.308)"><rect width="25" height="26" x="1161" y="377" class="f" rx="11" style="fill:#fff"/></g><path d="M1215 377h5v16a5.4 5.4 0 0 0 5.3 4.9 5.9 5.9 0 0 0 6.1-4.9v-16h5.2v26h-5.2v-2.6c-2 2.6-5.1 2.8-7.3 2.8-5.9 0-9.1-3.3-9.1-7.7z" class="f" style="fill:#fff" transform="matrix(.28 0 0 .28 -.907 -.308)"/></g></svg>